# Blender v2.76 (sub 0) OBJ File: ''
# www.blender.org
mtllib sword.mtl
o Cube.001_Cube.002
v -1.965395 1.691753 2.601151
v -1.965395 1.733541 2.601151
v -2.193355 1.691753 0.614185
v -2.193355 1.733541 0.614185
v -1.567664 1.691753 2.555521
v -1.567664 1.733541 2.555521
v -1.795624 1.691753 0.568554
v -1.795624 1.733541 0.568554
v -1.994489 1.793793 0.591370
v -1.994489 1.631501 0.591370
v -1.733553 1.719207 2.865764
v -1.733553 1.706087 2.865764
v -2.004282 1.634468 0.592493
v -1.744969 1.719913 2.852734
v -2.004282 1.790826 0.592493
v -1.744969 1.705381 2.852734
v -1.983600 1.790494 0.590120
v -1.724470 1.705302 2.848776
v -1.983600 1.634800 0.590120
v -1.724470 1.719992 2.848776
v -1.978919 1.712647 2.602703
v -2.206879 1.712647 0.615737
v -1.782130 1.712647 0.567006
v -1.554170 1.712647 2.553972
v -1.733568 1.712647 2.865766
v -2.011013 1.790494 0.455496
v -2.077467 1.691753 0.479560
v -1.745649 1.712647 2.852812
v -1.723745 1.712647 2.848693
v -2.081752 1.712647 0.481112
v -2.214754 1.712647 0.547096
v -2.201230 1.691753 0.545544
v -1.991475 1.790494 0.521479
v -1.803499 1.733541 0.499913
v -1.790005 1.712647 0.498365
v -1.803499 1.691753 0.499913
v -2.012157 1.634468 0.523852
v -2.012157 1.790826 0.523852
v -2.002364 1.793793 0.522729
v -1.991475 1.634800 0.521479
v -2.002364 1.631501 0.522729
v -2.073605 1.790494 -0.154587
v -2.201230 1.733541 0.545544
v -2.139679 1.691753 -0.146333
v -2.143939 1.712647 -0.145801
v -1.951459 1.733541 0.433930
v -1.947184 1.712647 0.432381
v -1.951459 1.691753 0.433930
v -2.017565 1.634468 0.457868
v -2.017565 1.790826 0.457868
v -2.014463 1.793793 0.456745
v -2.011013 1.634800 0.455496
v -2.014463 1.631501 0.456745
v -2.075802 1.814093 -0.180451
v -2.077467 1.733541 0.479560
v -2.161906 1.685419 -0.169695
v -2.167458 1.712647 -0.169002
v -2.014392 1.733541 -0.161984
v -2.010141 1.712647 -0.162515
v -2.014392 1.691753 -0.161984
v -2.080120 1.634468 -0.153773
v -2.080120 1.790826 -0.153773
v -2.077035 1.793793 -0.154158
v -2.073605 1.634800 -0.154587
v -2.077035 1.631501 -0.154158
v -2.087024 1.814093 -0.270286
v -2.139679 1.733541 -0.146333
v -2.173128 1.685419 -0.259530
v -2.178680 1.712647 -0.258836
v -1.998637 1.739875 -0.190091
v -1.993098 1.712647 -0.190783
v -1.998637 1.685419 -0.190091
v -2.084291 1.610768 -0.179391
v -2.084291 1.814526 -0.179391
v -2.080271 1.818392 -0.179893
v -2.075802 1.611201 -0.180451
v -2.080271 1.606902 -0.179893
v -2.161906 1.739875 -0.169695
v -2.009860 1.739875 -0.279925
v -2.004320 1.712647 -0.280617
v -2.009860 1.685419 -0.279925
v -2.095514 1.610768 -0.269225
v -2.095514 1.814526 -0.269225
v -2.091494 1.818392 -0.269728
v -2.087024 1.611201 -0.270286
v -2.091494 1.606902 -0.269728
v -2.091500 1.712647 -0.269727
v -2.173128 1.739875 -0.259530
v -2.095793 1.712647 -0.269191
v -2.086726 1.712647 -0.270323
v -2.057042 1.733541 2.317990
v -2.057042 1.691753 2.317990
v -1.548682 1.733541 2.272360
v -1.548682 1.691753 2.272360
v -1.766720 1.729836 2.541642
v -1.766720 1.695458 2.541642
v -1.781016 1.695276 2.530629
v -1.781016 1.730018 2.530629
v -1.754782 1.730039 2.526897
v -1.754782 1.695255 2.526897
v -1.531435 1.712647 2.270812
v -2.074328 1.712647 2.319542
vt 0.271394 0.424786
vt 0.398358 0.399397
vt 0.394693 0.487229
vt 0.267307 0.511894
vt 0.368773 0.698263
vt 0.400092 0.486694
vt 0.374172 0.697728
vt 0.022069 0.392294
vt 0.000000 0.390277
vt 0.000116 0.291235
vt 0.022252 0.293118
vt 0.538338 0.404711
vt 0.464518 0.353515
vt 0.496089 0.289670
vt 0.547785 0.381851
vt 0.005706 0.301191
vt 0.163469 0.016097
vt 0.161847 0.291541
vt 0.226537 0.299410
vt 0.385637 0.021151
vt 0.399200 0.306266
vt 0.271814 0.330931
vt 0.539379 0.526047
vt 0.635713 0.844268
vt 0.634851 0.856624
vt 0.533798 0.526923
vt 0.564446 0.328696
vt 0.662309 0.007776
vt 0.669786 0.000000
vt 0.568972 0.332208
vt 0.513470 0.451206
vt 0.508734 0.452236
vt 0.502223 0.431487
vt 0.505898 0.428105
vt 0.403757 0.398862
vt 0.384935 0.006385
vt 0.390334 0.005850
vt 0.391036 0.020616
vt 0.477058 0.260885
vt 0.517923 0.157921
vt 0.224192 0.297777
vt 0.542161 0.407363
vt 0.550463 0.386625
vt 0.626121 0.423094
vt 0.546758 0.408224
vt 0.555771 0.384884
vt 0.647411 0.354823
vt 0.022252 0.490224
vt 0.161847 0.488647
vt 0.163469 0.750477
vt 0.005706 0.465260
vt 0.669757 0.012215
vt 0.574492 0.332895
vt 0.161730 0.390583
vt 0.167434 0.291551
vt 0.167317 0.390593
vt 0.404599 0.305731
vt 0.610852 0.501880
vt 0.520490 0.474563
vt 0.595226 0.433416
vt 0.533870 0.428105
vt 0.529407 0.427794
vt 0.163563 0.765644
vt 0.169056 0.750488
vt 0.169150 0.765655
vt 0.167434 0.488658
vt 0.515256 0.472980
vt 0.443239 0.421790
vt 0.000116 0.488342
vt 0.746254 0.466986
vt 0.740766 0.368169
vt 0.800867 0.368169
vt 0.802654 0.466986
vt 0.372830 0.708658
vt 0.379120 0.696798
vt 0.378526 0.709015
vt 0.833047 0.468557
vt 0.827547 0.369741
vt 0.883951 0.369741
vt 0.885742 0.468557
vt 0.174639 0.750070
vt 0.174601 0.765503
vt 0.909946 0.739482
vt 0.910780 0.739482
vt 0.833047 0.270925
vt 0.885742 0.270925
vt 0.746254 0.269353
vt 0.802654 0.269353
vt 0.169056 0.016107
vt 0.169150 0.000152
vt 0.174601 0.000000
vt 0.174639 0.015690
vt 0.163563 0.000141
vt 0.367431 0.709193
vt 0.175294 0.483653
vt 0.175341 0.385259
vt 0.223669 0.385539
vt 0.223702 0.483938
vt 0.426374 0.690565
vt 0.425734 0.702808
vt 0.390577 0.460901
vt 0.393209 0.371291
vt 0.441427 0.364531
vt 0.438732 0.454177
vt 0.224165 0.750428
vt 0.224192 0.765865
vt 0.395085 0.279938
vt 0.443239 0.273213
vt 0.175294 0.286546
vt 0.223702 0.286832
vt 0.224192 0.000362
vt 0.224165 0.016048
vt 0.396031 0.006207
vt 0.395984 0.019686
vt 0.822707 0.000000
vt 0.827547 0.000000
vt 0.822707 0.736339
vt 0.827547 0.736339
vt 0.909946 0.000000
vt 0.910779 0.000000
vt 0.930566 0.087876
vt 0.930066 0.098583
vt 0.923354 0.013954
vt 0.924006 0.000000
vt 0.920416 0.305335
vt 0.923806 0.379021
vt 0.915196 0.379407
vt 0.910780 0.283384
vt 0.655412 0.512895
vt 0.654842 0.524171
vt 0.648534 0.442800
vt 0.649277 0.428105
vt 0.930566 0.451865
vt 0.924006 0.474334
vt 0.648484 0.789506
vt 0.655412 0.859819
vt 0.649277 0.880200
vt 0.640248 0.788572
vt 0.932724 0.099105
vt 0.926818 0.014634
vt 0.968042 0.646855
vt 0.972842 0.728436
vt 0.443239 0.000000
vt 0.443239 0.013453
vt 0.983126 0.324484
vt 0.982524 0.441383
vt 0.975372 0.442173
vt 0.975974 0.325274
vt 0.992672 0.997587
vt 0.992637 0.977470
vt 0.999965 0.977451
vt 1.000000 0.997568
vt 0.991553 0.015978
vt 0.984401 0.016768
vt 0.983126 0.560416
vt 0.975975 0.561206
vt 0.991990 0.501963
vt 0.992033 0.373333
vt 0.999362 0.373314
vt 0.999318 0.501945
vt 0.992637 0.020460
vt 0.992672 0.000019
vt 1.000000 0.000000
vt 0.999965 0.020441
vt 0.991553 0.898767
vt 0.984402 0.899557
vt 0.992033 0.630193
vt 0.999362 0.630174
vt 0.645004 0.718833
vt 0.635713 0.696473
vt 0.969982 0.656954
vt 0.975372 0.741596
vt 0.969982 0.292964
vt 0.975372 0.267262
vt 0.707219 0.500051
vt 0.740766 0.500928
vt 0.736256 0.629612
vt 0.698696 0.979719
vt 0.703529 0.499954
vt 0.705276 0.500000
vt 0.696521 1.000000
vt 0.695204 0.981676
vt 0.669786 0.499072
vt 0.669791 0.627874
vt 0.714037 0.000000
vt 0.715500 0.020376
vt 0.674301 0.370388
vt 0.712080 0.018238
vt 0.740766 0.372126
vt 0.991990 0.000000
vt 0.984838 0.000790
vt 0.991990 0.916291
vt 0.984838 0.917081
vt 0.242919 0.321750
vt 0.242078 0.414882
vt 0.635713 0.510928
vt 0.529339 0.530582
vt 0.512517 0.477861
vt 0.443239 0.601233
vt 0.459640 0.572094
vt 0.669786 0.344756
vt 0.238412 0.502714
vn -0.981300 0.000000 0.192400
vn -0.995300 0.000000 0.096600
vn -0.548100 -0.834300 0.059200
vn -0.506200 -0.855600 0.107800
vn -0.208900 -0.977300 0.035600
vn -0.637300 -0.657500 -0.401800
vn -0.363900 -0.928600 -0.072500
vn 0.999300 0.000000 -0.038100
vn 0.962200 0.000000 0.272200
vn 0.512100 -0.837400 0.191000
vn 0.516100 -0.856400 -0.014000
vn -0.738600 0.000000 0.674100
vn -0.871500 0.000000 0.490400
vn -0.453000 -0.837700 0.304900
vn -0.452300 -0.778300 0.435500
vn 0.063200 -0.997900 0.015700
vn 0.213400 -0.976900 -0.013000
vn 0.549200 -0.833100 -0.065700
vn -0.056700 0.997900 0.029800
vn -0.208900 0.977300 0.035600
vn -0.548100 0.834300 0.059200
vn -0.506200 0.855600 0.107800
vn 0.063200 0.997900 0.015700
vn 0.213400 0.976900 -0.013000
vn 0.002600 0.999800 0.015900
vn 0.003600 0.999500 0.031600
vn -0.056700 -0.997900 0.029800
vn 0.002600 -0.999800 0.015900
vn 0.003600 -0.999500 0.031600
vn 0.872100 0.000000 0.489300
vn 0.112700 0.000000 0.993600
vn 0.093900 -0.574200 0.813300
vn 0.538900 -0.778300 0.322100
vn -0.919300 0.000000 -0.393500
vn 0.006900 0.999900 -0.012900
vn -0.363900 0.928600 -0.072500
vn 0.516100 0.856400 -0.014000
vn 0.549200 0.833100 -0.065700
vn 0.991600 0.000000 -0.129000
vn 0.560900 -0.683700 -0.466800
vn 0.840600 0.000000 -0.541600
vn -0.637300 0.657500 -0.401800
vn 0.512100 0.837400 0.191000
vn 0.538900 0.778300 0.322100
vn 0.093900 0.574200 0.813300
vn -0.452300 0.778300 0.435500
vn 0.327000 0.932500 -0.153200
vn 0.560900 0.683700 -0.466800
vn -0.453000 0.837700 0.304900
vn 0.795600 0.000000 -0.605700
vn 0.659700 0.630800 -0.408400
vn 0.006900 -0.999900 -0.012900
vn -0.569300 -0.821300 -0.037500
vn -0.030900 -0.999500 -0.011500
vn -0.848500 0.000000 -0.529200
vn -0.729600 -0.599500 -0.328900
vn 0.535700 0.827400 -0.168200
vn -0.030900 0.999500 -0.011500
vn -0.729600 0.599500 -0.328900
vn 0.659700 -0.630800 -0.408400
vn 0.327000 -0.932500 -0.153200
vn 0.535700 -0.827400 -0.168200
vn 0.972900 0.000000 0.231100
vn 0.850800 0.465700 0.243500
vn -0.617300 -0.695200 0.368100
vn 0.059100 -0.897300 0.437400
vn -0.895900 0.000000 0.444200
vn -0.771300 -0.470700 0.428400
vn 0.687600 0.692100 0.219400
vn 0.059100 0.897300 0.437400
vn -0.771300 0.470700 0.428400
vn 0.850800 -0.465700 0.243500
vn 0.687600 -0.692100 0.219400
vn -0.569300 0.821300 -0.037500
vn -0.617600 -0.690900 0.375800
vn 0.040100 -0.946100 0.321300
vn -0.902500 0.000000 0.430600
vn -0.792700 -0.455000 0.405600
vn 0.691100 0.691000 0.212000
vn 0.040100 0.946100 0.321300
vn -0.792700 0.455000 0.405600
vn 0.868300 -0.454900 0.197700
vn 0.980800 0.000000 0.194900
vn 0.691100 -0.691000 0.212000
vn -0.617300 0.695200 0.368100
vn -0.617600 0.690900 0.375800
vn -0.823900 0.000000 -0.566700
vn -0.742900 -0.369900 -0.557900
vn 0.396800 0.511500 -0.762100
vn -0.071800 0.814700 -0.575400
vn -0.572100 -0.511500 -0.641100
vn -0.742900 0.369900 -0.557900
vn 0.582900 -0.369700 -0.723500
vn 0.659100 0.000000 -0.752100
vn -0.071800 -0.814700 -0.575400
vn 0.396800 -0.511500 -0.762100
vn -0.572100 0.511500 -0.641100
vn 0.868300 0.454900 0.197700
vn 0.582900 0.369800 -0.723500
vn -0.123900 0.000000 -0.992300
vn -0.124000 0.000000 -0.992300
usemtl None
s 1
f 102/1/1 22/2/2 3/3/3 92/4/4
f 13/5/5 3/3/3 32/6/6 37/7/7
f 101/8/8 24/9/9 5/10/10 94/11/11
f 28/12/12 21/13/13 1/14/14 16/15/15
f 100/16/16 19/17/17 7/18/18 94/11/11
f 98/19/19 15/20/20 4/21/21 91/22/22
f 99/23/23 17/24/24 9/25/25 95/26/26
f 97/27/27 13/28/5 10/29/28 96/30/29
f 29/31/30 25/32/31 12/33/32 18/34/33
f 3/3/3 22/2/2 31/35/34 32/6/6
f 15/20/20 9/36/25 39/37/35 38/38/36
f 92/39/4 3/40/3 13/28/5 97/27/27
f 95/41/26 9/36/25 15/20/20 98/19/19
f 25/42/31 28/12/12 16/15/15 12/43/32
f 24/44/9 29/45/30 18/46/33 5/47/10
f 93/48/37 8/49/38 17/50/24 99/51/23
f 96/30/29 10/29/28 19/52/17 100/53/16
f 23/54/39 7/18/18 36/55/40 35/56/41
f 4/21/21 15/20/20 38/38/36 43/57/42
f 6/58/43 20/59/44 29/31/30 24/60/9
f 11/61/45 14/62/46 28/12/12 25/42/31
f 9/63/25 17/50/24 33/64/47 39/65/35
f 17/50/24 8/49/38 34/66/48 33/64/47
f 20/59/44 11/67/45 25/32/31 29/31/30
f 14/62/46 2/68/49 21/13/13 28/12/12
f 93/48/37 6/69/43 24/9/9 101/8/8
f 8/49/38 23/54/39 35/56/41 34/66/48
f 91/22/22 4/21/21 22/2/2 102/1/1
f 34/70/48 35/71/41 47/72/50 46/73/51
f 41/74/52 37/7/7 49/75/53 53/76/54
f 32/77/6 31/78/34 30/79/55 27/80/56
f 39/65/35 33/64/47 26/81/57 51/82/58
f 37/83/7 32/77/6 27/80/56 49/84/53
f 31/78/34 43/85/42 55/86/59 30/79/55
f 35/71/41 36/87/40 48/88/60 47/72/50
f 40/89/61 41/90/52 53/91/54 52/92/62
f 7/18/18 19/17/17 40/89/61 36/55/40
f 19/17/17 10/93/28 41/90/52 40/89/61
f 22/2/2 4/21/21 43/57/42 31/35/34
f 10/94/28 13/5/5 37/7/7 41/74/52
f 46/95/51 47/96/50 59/97/63 58/98/64
f 53/76/54 49/75/53 61/99/65 65/100/66
f 27/101/56 30/102/55 45/103/67 44/104/68
f 51/82/58 26/81/57 42/105/69 63/106/70
f 49/75/53 27/101/56 44/104/68 61/99/65
f 30/102/55 55/107/59 67/108/71 45/103/67
f 47/96/50 48/109/60 60/110/72 59/97/63
f 52/92/62 53/91/54 65/111/66 64/112/73
f 38/38/36 39/37/35 51/113/58 50/114/74
f 36/87/40 40/115/61 52/116/62 48/88/60
f 33/117/47 34/70/48 46/73/51 26/118/57
f 43/85/42 38/119/36 50/120/74 55/86/59
f 65/121/66 61/122/65 73/123/75 77/124/76
f 44/125/68 45/126/67 57/127/77 56/128/78
f 63/129/70 42/130/69 54/131/79 75/132/80
f 61/122/65 44/125/68 56/128/78 73/123/75
f 45/126/67 67/133/71 78/134/81 57/127/77
f 59/135/63 60/136/72 72/137/82 71/138/83
f 64/139/73 65/121/66 77/124/76 76/140/84
f 67/133/71 62/141/85 74/142/86 78/134/81
f 50/114/74 51/113/58 63/143/70 62/144/85
f 48/109/60 52/92/62 64/112/73 60/110/72
f 26/81/57 46/95/51 58/98/64 42/105/69
f 55/107/59 50/114/74 62/144/85 67/108/71
f 56/145/78 57/146/77 69/147/87 68/148/88
f 75/149/80 54/150/79 66/151/89 84/152/90
f 73/153/75 56/145/78 68/148/88 82/154/91
f 57/146/77 78/155/81 88/156/92 69/147/87
f 71/157/83 72/158/82 81/159/93 80/160/94
f 76/161/84 77/162/76 86/163/95 85/164/96
f 78/155/81 74/165/86 83/166/97 88/156/92
f 54/150/79 70/167/98 79/168/99 66/151/89
f 58/169/64 59/135/63 71/138/83 70/170/98
f 62/141/85 63/171/70 75/172/80 74/142/86
f 60/173/72 64/139/73 76/140/84 72/174/82
f 42/130/69 58/169/64 70/170/98 54/131/79
f 90/175/100 80/176/94 81/177/93 85/178/96
f 89/179/101 87/180/100 86/181/95 82/182/91
f 69/183/87 89/179/101 82/182/91 68/184/88
f 87/180/100 90/175/100 85/178/96 86/181/95
f 84/185/90 66/186/89 90/175/100 87/180/100
f 88/187/92 83/188/97 89/179/101 69/183/87
f 83/188/97 84/185/90 87/180/100 89/179/101
f 66/186/89 79/189/99 80/176/94 90/175/100
f 77/190/76 73/153/75 82/154/91 86/191/95
f 70/167/98 71/157/83 80/160/94 79/168/99
f 74/165/86 75/192/80 84/193/90 83/166/97
f 72/158/82 76/161/84 85/164/96 81/159/93
f 2/194/49 91/22/22 102/1/1 21/195/13
f 8/49/38 93/48/37 101/8/8 23/54/39
f 12/43/32 96/30/29 100/53/16 18/46/33
f 6/58/43 93/196/37 99/23/23 20/59/44
f 11/67/45 95/26/26 98/197/19 14/198/46
f 1/14/14 92/39/4 97/27/27 16/15/15
f 16/15/15 97/27/27 96/30/29 12/43/32
f 20/59/44 99/23/23 95/26/26 11/67/45
f 14/198/46 98/197/19 91/199/22 2/200/49
f 18/46/33 100/53/16 94/201/11 5/47/10
f 23/54/39 101/8/8 94/11/11 7/18/18
f 21/195/13 102/1/1 92/4/4 1/202/14
